<?xml version="1.0" encoding="utf-8"?>
<!-- Generator: Adobe Illustrator 16.0.0, SVG Export Plug-In . SVG Version: 6.00 Build 0)  -->
<!DOCTYPE svg PUBLIC "-//W3C//DTD SVG 1.1//EN" "http://www.w3.org/Graphics/SVG/1.1/DTD/svg11.dtd">
<svg version="1.1" id="Layer_1" xmlns="http://www.w3.org/2000/svg" xmlns:xlink="http://www.w3.org/1999/xlink" x="0px" y="0px"
	 width="272.84px" height="600px" viewBox="5.312 11.681 272.84 600" enable-background="new 5.312 11.681 272.84 600"
	 xml:space="preserve">
<g id="change1">
	<path fill="#D34D9C" d="M142.069,11.681c29.281,0,53.024,23.739,53.024,53.016c0,29.283-23.743,53.016-53.024,53.016
		c-29.277,0-53.016-23.733-53.016-53.016C89.053,35.419,112.792,11.681,142.069,11.681z"/>
	<path fill="#D34D9C" d="M277.098,312.99l-42.022-130.579c-0.272-0.885-0.726-1.662-1.11-2.472
		c-16.703-42.351-53.962-52.335-67.115-52.335c-11.918,0-9.207,0-21.614,0c-2.794,0-5.084,0-7.023,0c-12.388,0-9.673,0-21.584,0
		c-13.164,0-50.413,9.973-67.121,52.335c-0.397,0.81-0.816,1.587-1.105,2.472L6.37,312.99c-3.611,10.93,2.324,22.747,13.284,26.341
		c10.925,3.629,22.723-2.325,26.323-13.267L86.45,200.258h9.491L26.853,416.026h56.361v170.991c0,13.617,11.044,24.65,24.651,24.65
		c13.618,0,24.663-11.033,24.663-24.65V416.038h18.413V587.03c0,13.605,11.033,24.65,24.663,24.65
		c13.606,0,24.651-11.046,24.651-24.65V416.038h56.364l-69.1-215.768h9.456l40.504,125.805
		c3.605,10.929,15.376,16.884,26.329,13.267C274.763,335.736,280.704,323.922,277.098,312.99z"/>
</g>
</svg>
