<?xml version="1.0" encoding="utf-8"?>
<!-- Generator: Adobe Illustrator 16.0.0, SVG Export Plug-In . SVG Version: 6.00 Build 0)  -->
<!DOCTYPE svg PUBLIC "-//W3C//DTD SVG 1.1//EN" "http://www.w3.org/Graphics/SVG/1.1/DTD/svg11.dtd">
<svg version="1.1" id="Layer_1" xmlns="http://www.w3.org/2000/svg" xmlns:xlink="http://www.w3.org/1999/xlink" x="0px" y="0px"
	 width="247.872px" height="600px" viewBox="2.682 6.493 247.872 600" enable-background="new 2.682 6.493 247.872 600"
	 xml:space="preserve">
<g id="change1_1_">
	<path fill="#2D9CD7" d="M126.615,6.493c29.307,0,53.056,23.75,53.056,53.055c0,29.3-23.749,53.049-53.056,53.049
		c-29.293,0-53.055-23.75-53.055-53.049C73.56,30.243,97.323,6.493,126.615,6.493z"/>
	<path fill="#2D9CD7" d="M250.549,194.806c-0.225-39.396-32.225-71.277-71.677-71.277h-70.889h-4.861H74.369
		c-39.452,0-71.461,31.88-71.664,71.277c-0.011,0.072-0.023,0.14-0.023,0.208v140.346c0,12.626,10.259,22.874,22.874,22.874
		c12.649,0,22.885-10.257,22.885-22.874v-83.234v-46.792h10.932v50.069v89.666v12.948v217.732c0,16.971,13.749,30.719,30.708,30.719
		c16.983,0,30.72-13.75,30.72-30.719V358.041h11.629v217.73c0,16.971,13.737,30.722,30.71,30.722
		c16.979,0,30.718-13.751,30.718-30.722V358.043v-12.964v-89.665v-50.07h10.933v46.792v83.236c0,12.624,10.247,22.885,22.884,22.885
		c12.639,0,22.874-10.269,22.874-22.885V195.013C250.56,194.946,250.549,194.878,250.549,194.806z"/>
</g>
</svg>
